<svg width="32" height="32" viewBox="0 0 32 32" fill="none" xmlns="http://www.w3.org/2000/svg">
<g clip-path="url(#clip0_28_223)">
<path d="M18.6666 17.3336C16.4613 17.3336 14.6666 15.5389 14.6666 13.3336C14.6666 11.1283 16.4613 9.33364 18.6666 9.33364H21.333V4.00045C21.333 1.79515 19.5384 0.000488281 17.3331 0.000488281H2.99998C2.56127 0.000488281 2.15063 0.216306 1.90136 0.577631C1.65332 0.938955 1.59741 1.39916 1.75464 1.80833L11.4213 27.1416C11.6173 27.6589 12.1132 28.0002 12.6666 28.0002H17.3331C19.5384 28.0002 21.333 26.2055 21.333 24.0002V17.3336H18.6666Z" fill="#2196F3"/>
<path d="M24.8225 19.8989C24.3252 19.6921 23.9997 19.2055 23.9997 18.6667V14.6668H18.6666C17.9305 14.6668 17.3331 14.0696 17.3331 13.3335C17.3331 12.5974 17.9305 12.0003 18.6666 12.0003H23.9997V8.00033C23.9997 7.46152 24.3252 6.97495 24.8225 6.76816C25.321 6.56162 25.8945 6.67637 26.2756 7.05771L31.609 12.3909C32.1303 12.9121 32.1303 13.7549 31.609 14.2761L26.2756 19.6096C25.8945 19.9907 25.321 20.1054 24.8225 19.8989Z" fill="#607D8B"/>
<path d="M11.528 2.80286L3.51608 0.13223C1.70799 -0.423673 0 0.91103 0 2.66687V26.6666C0 27.8067 0.725334 28.8241 1.8054 29.1974L9.81581 31.868C10.1105 31.9586 10.3812 32.0001 10.6666 32.0001C12.1373 32.0001 13.3331 30.804 13.3331 29.3333V5.33359C13.3331 4.19371 12.6078 3.17639 11.528 2.80286Z" fill="#64B5F6"/>
</g>
<defs>
<clipPath id="clip0_28_223">
<rect width="32" height="32" fill="white"/>
</clipPath>
</defs>
</svg>
