<svg width="80" height="80" viewBox="0 0 80 80" fill="none" xmlns="http://www.w3.org/2000/svg">
<g clip-path="url(#clip0_28_184)">
<path d="M13.8858 70.3001C5.3825 62.965 0 52.1111 0 40C0 17.9086 17.9086 0 40 0C62.0914 0 80 17.9086 80 40C80 52.1111 74.6175 62.9651 66.1141 70.3003L13.8858 70.3001Z" fill="#A3D4FF"/>
<path d="M53.7127 15.4771L24.537 33.6813L33.1899 42.3341H30.6024L56.4814 68.2131L66.1141 70.3C74.211 63.3155 79.4781 53.1405 79.9631 41.7275L53.7127 15.4771Z" fill="#65B1FC"/>
<path d="M27.0362 34.8499C28.8356 34.8499 30.2942 33.3912 30.2942 31.5919C30.2942 29.7926 28.8356 28.3339 27.0362 28.3339C25.2369 28.3339 23.7783 29.7926 23.7783 31.5919C23.7783 33.3912 25.2369 34.8499 27.0362 34.8499Z" fill="#E09380"/>
<path d="M52.9637 34.8499C54.763 34.8499 56.2217 33.3912 56.2217 31.5919C56.2217 29.7926 54.763 28.3339 52.9637 28.3339C51.1644 28.3339 49.7057 29.7926 49.7057 31.5919C49.7057 33.3912 51.1644 34.8499 52.9637 34.8499Z" fill="#D47F6C"/>
<path d="M30.8348 51.389L23.2183 52.1898C21.3386 52.4525 19.6953 53.2189 18.4655 54.3022C18.4633 54.3012 18.4609 54.3004 18.4588 54.2995C17.017 55.5676 16.147 57.2736 16.147 59.1256V65.7428C23.0261 69.4125 31.2133 71.5412 40 71.5412C48.7867 71.5412 56.9738 69.4125 63.853 65.7428V59.1256C63.853 57.2736 62.983 55.5676 61.5413 54.2995C61.5389 54.3004 61.5367 54.3012 61.5345 54.3022C60.3047 53.2189 58.6616 52.4525 56.7817 52.1898L49.1652 51.389L40 54.6517L30.8348 51.389Z" fill="white"/>
<path d="M40 54.6514V71.5414C48.7787 71.538 56.9792 69.4099 63.853 65.7432V59.126C63.853 57.2739 62.983 55.568 61.5413 54.2999C61.5389 54.3008 61.5367 54.3016 61.5345 54.3025C60.3047 53.2192 58.6616 52.4528 56.7817 52.1902L49.1652 51.3894" fill="#E9EDF5"/>
<path d="M30.8348 51.3891C33.0177 54.0216 36.313 55.6983 40 55.6983C43.687 55.6983 46.9823 54.0216 49.1652 51.3891L48.6866 51.3084C46.9659 51.0186 45.7061 49.5287 45.7061 47.7839V39.8391H34.2941V47.784C34.2941 49.5289 33.0342 51.0187 31.3136 51.3086L30.8348 51.3891Z" fill="#E09380"/>
<path d="M49.1652 51.3891L48.6866 51.3084C46.9659 51.0186 45.7061 49.5287 45.7061 47.7839V39.8391H40V55.6981C43.68 55.6928 46.9858 54.0175 49.1652 51.3891Z" fill="#D47F6C"/>
<path d="M40 46.2138C33.0281 46.2138 26.8122 40.562 26.8122 33.5902V26.5711C26.8122 19.5992 33.0283 13.9475 40 13.9475C46.9719 13.9475 53.1878 19.5992 53.1878 26.5711V33.5902C53.1878 40.562 46.9719 46.2138 40 46.2138Z" fill="#FAA68E"/>
<path d="M40 13.9476V46.2139C46.9719 46.2139 53.1878 40.5622 53.1878 33.5903V26.5712C53.1878 19.5994 46.9719 13.9476 40 13.9476Z" fill="#E09380"/>
<path d="M13.8858 70.3002C20.8931 76.3449 30.0197 80 40 80C49.9803 80 59.1069 76.3449 66.1142 70.3002V57.6511H13.8858V70.3002Z" fill="#414952"/>
<path d="M40 80C49.9803 80 59.1069 76.3449 66.1142 70.3002V57.6511H40V80Z" fill="#23272B"/>
<path d="M40 75.9545C42.5514 75.9545 44.6198 73.8862 44.6198 71.3347C44.6198 68.7832 42.5514 66.7148 40 66.7148C37.4485 66.7148 35.3801 68.7832 35.3801 71.3347C35.3801 73.8862 37.4485 75.9545 40 75.9545Z" fill="#7E8596"/>
<path d="M40 66.7148C42.5516 66.7148 44.6198 68.7833 44.6198 71.3347C44.6198 73.8862 42.5514 75.9545 40 75.9545V66.7148Z" fill="#707789"/>
<path d="M55.463 21.4308C55.463 15.3584 50.5405 10.4359 44.4681 10.4359H37.0764C30.1512 10.4359 24.5372 16.05 24.5372 22.9751V29.2997C24.5372 30.5658 25.5634 31.592 26.8295 31.592V27.6847H32.4611C36.3459 27.6847 44.4936 27.9739 48.273 22.0847C48.7108 24.0089 50.2792 27.2587 52.4419 27.2587H53.1706V31.592C54.4367 31.592 55.463 30.5656 55.463 29.2997V21.4308Z" fill="#414952"/>
<path d="M44.468 10.4358H40V27.1724C43.1198 26.5436 46.3039 25.1528 48.273 22.0845C48.7108 24.0088 50.2792 27.2586 52.4419 27.2586H53.1706V31.5917C54.4367 31.5917 55.463 30.5655 55.463 29.2994V21.4306C55.463 15.3584 50.5403 10.4358 44.468 10.4358Z" fill="#333940"/>
</g>
<defs>
<clipPath id="clip0_28_184">
<rect width="80" height="80" fill="white"/>
</clipPath>
</defs>
</svg>
